<svg width="1254" height="1254" viewBox="0 0 1254 1254" fill="none" xmlns="http://www.w3.org/2000/svg">
<g clip-path="url(#clip0_3_2)">
<path d="M96.15 626.43C96.1433 809.55 96.14 906.177 96.14 916.31C96.14 922.977 96.2833 928.43 96.57 932.67C96.99 938.763 97.5333 944.2 98.2 948.98C104.06 991.02 122.26 1031.18 148.64 1064.38C150.08 1066.19 152.51 1069.15 155.93 1073.24C161.86 1080.32 167.64 1085.68 174.43 1092.56C176.45 1094.61 178.51 1095.76 180.46 1097.61C182.093 1099.16 183.567 1100.47 184.88 1101.54C222.153 1131.99 264.693 1150 312.5 1155.57C319.713 1156.41 329.9 1156.84 343.06 1156.87C356.367 1156.89 450.547 1156.9 625.6 1156.91C800.647 1156.92 894.823 1156.91 908.13 1156.89C921.29 1156.87 931.477 1156.44 938.69 1155.6C986.497 1150.03 1029.04 1132.02 1066.32 1101.58C1067.63 1100.51 1069.11 1099.2 1070.74 1097.65C1072.69 1095.8 1074.75 1094.65 1076.77 1092.6C1083.56 1085.72 1089.34 1080.36 1095.27 1073.28C1098.69 1069.19 1101.12 1066.23 1102.56 1064.42C1128.94 1031.22 1147.15 991.07 1153.01 949.03C1153.68 944.25 1154.22 938.813 1154.64 932.72C1154.93 928.48 1155.07 923.027 1155.07 916.36C1155.08 906.227 1155.08 809.6 1155.09 626.48C1155.1 443.353 1155.1 346.723 1155.1 336.59C1155.1 329.93 1154.96 324.48 1154.67 320.24C1154.25 314.147 1153.71 308.71 1153.04 303.93C1147.18 261.89 1128.98 221.73 1102.6 188.53C1101.16 186.717 1098.73 183.763 1095.31 179.67C1089.38 172.59 1083.6 167.23 1076.81 160.35C1074.79 158.3 1072.73 157.15 1070.78 155.3C1069.15 153.747 1067.67 152.437 1066.36 151.37C1029.09 120.923 986.547 102.913 938.74 97.34C931.527 96.5 921.34 96.0667 908.18 96.04C894.873 96.02 800.693 96.0067 625.64 96C450.593 95.9933 356.413 96 343.1 96.02C329.947 96.04 319.763 96.47 312.55 97.31C264.743 102.877 222.2 120.883 184.92 151.33C183.607 152.397 182.133 153.707 180.5 155.26C178.55 157.11 176.49 158.26 174.47 160.31C167.68 167.18 161.9 172.54 155.97 179.62C152.55 183.713 150.12 186.667 148.68 188.48C122.3 221.68 104.09 261.84 98.23 303.88C97.5633 308.66 97.02 314.097 96.6 320.19C96.3133 324.43 96.1667 329.883 96.16 336.55C96.16 346.683 96.1567 443.31 96.15 626.43Z" stroke="#4B060F" stroke-width="2"/>
<path d="M353.77 385.17L326.18 338.03C326.141 337.965 326.12 337.89 326.119 337.814C326.119 337.738 326.138 337.663 326.176 337.597C326.213 337.531 326.268 337.476 326.334 337.438C326.399 337.4 326.474 337.38 326.55 337.38C473.91 337.387 605.56 337.42 721.5 337.48C734.1 337.487 744.527 338.16 752.78 339.5C810.67 348.89 863.11 381.39 896.56 429.41C918.81 461.34 931.46 499.54 932.57 539.13C935.34 637.54 870.12 722.86 775.16 747.46C775.091 747.477 775.026 747.511 774.972 747.558C774.918 747.605 774.876 747.664 774.849 747.731C774.822 747.798 774.81 747.871 774.816 747.944C774.821 748.016 774.843 748.087 774.88 748.15L898.57 959.44C898.598 959.488 898.613 959.543 898.613 959.598C898.613 959.654 898.599 959.708 898.572 959.757C898.545 959.805 898.505 959.846 898.458 959.875C898.41 959.903 898.356 959.919 898.3 959.92H847.58C847.413 959.92 847.25 959.877 847.106 959.794C846.962 959.712 846.843 959.593 846.76 959.45L660.19 640.77C660.111 640.633 659.997 640.519 659.86 640.44C659.723 640.361 659.568 640.32 659.41 640.32H614.49C614.392 640.321 614.296 640.347 614.212 640.397C614.127 640.446 614.057 640.517 614.009 640.602C613.96 640.687 613.935 640.783 613.935 640.881C613.935 640.979 613.961 641.075 614.01 641.16L800.2 959.18C800.242 959.254 800.263 959.338 800.263 959.423C800.262 959.507 800.24 959.591 800.198 959.664C800.155 959.738 800.094 959.799 800.021 959.842C799.948 959.885 799.865 959.909 799.78 959.91H749.29C749.137 959.91 748.988 959.87 748.856 959.795C748.725 959.719 748.616 959.611 748.54 959.48L535.27 595.19C535.236 595.13 535.219 595.063 535.219 594.994C535.219 594.926 535.236 594.859 535.27 594.8C535.303 594.741 535.351 594.693 535.409 594.659C535.467 594.626 535.533 594.609 535.6 594.61C625.287 594.71 690.253 594.703 730.5 594.59C747.19 594.54 762.24 584.6 770.48 570.48C785.52 544.74 774.51 512.85 747.97 500.54C742.05 497.793 735.31 496.42 727.75 496.42C548.91 496.46 446.39 496.453 420.19 496.4C419.965 496.4 419.743 496.341 419.547 496.229C419.35 496.117 419.186 495.955 419.07 495.76L391.74 449.08C391.715 449.037 391.702 448.988 391.702 448.938C391.703 448.888 391.716 448.839 391.742 448.797C391.767 448.754 391.804 448.719 391.847 448.695C391.891 448.671 391.94 448.659 391.99 448.66C414.577 448.673 526.747 448.68 728.5 448.68C758.68 448.68 787.73 465.01 805.06 489.05C839.06 536.22 823.75 602.04 772.31 629.32C759.61 636.053 746.153 639.66 731.94 640.14C726.447 640.327 719.907 640.37 712.32 640.27C712.24 640.27 712.162 640.291 712.093 640.331C712.024 640.37 711.966 640.427 711.927 640.495C711.887 640.564 711.866 640.641 711.867 640.719C711.868 640.797 711.889 640.873 711.93 640.94L749.43 705C749.524 705.156 749.664 705.28 749.83 705.355C749.996 705.43 750.181 705.452 750.36 705.42C821.17 692.62 876.35 636.25 884.07 563.73C888.43 522.82 876.86 482.12 851.97 449.76C825.8 415.74 784.35 391.43 741.48 386.6C736.593 386.047 728.267 385.773 716.5 385.78C688.7 385.8 568.15 385.8 354.85 385.78C354.631 385.78 354.416 385.724 354.227 385.617C354.037 385.51 353.88 385.356 353.77 385.17Z" stroke="#C8848E" stroke-width="2"/>
<path d="M485.62 595.25L697.33 959.39C697.362 959.445 697.378 959.507 697.378 959.57C697.378 959.633 697.362 959.695 697.33 959.749C697.299 959.804 697.254 959.849 697.199 959.881C697.145 959.913 697.083 959.93 697.02 959.93H646.54C646.392 959.93 646.246 959.891 646.118 959.815C645.989 959.74 645.883 959.631 645.81 959.5C644.097 956.393 586.167 856.893 472.02 661C457.08 635.367 444.127 613.483 433.16 595.35C433.119 595.283 433.096 595.206 433.095 595.128C433.094 595.049 433.114 594.971 433.152 594.903C433.191 594.835 433.248 594.778 433.316 594.739C433.384 594.699 433.461 594.679 433.54 594.68H484.63C484.831 594.68 485.028 594.732 485.202 594.832C485.375 594.932 485.52 595.076 485.62 595.25Z" stroke="#C8848E" stroke-width="2"/>
<path d="M336.33 594.69C336.146 594.689 335.965 594.737 335.806 594.829C335.646 594.921 335.514 595.053 335.423 595.213C335.331 595.372 335.284 595.553 335.285 595.737C335.286 595.921 335.336 596.102 335.43 596.26L549.03 959.44C549.122 959.595 549.252 959.723 549.408 959.812C549.564 959.902 549.74 959.949 549.92 959.95H599.54C599.724 959.951 599.905 959.903 600.064 959.811C600.224 959.719 600.356 959.587 600.447 959.427C600.539 959.268 600.586 959.087 600.585 958.903C600.584 958.719 600.534 958.538 600.44 958.38L386.84 595.2C386.748 595.045 386.618 594.917 386.462 594.828C386.306 594.738 386.13 594.691 385.95 594.69H336.33Z" stroke="#C8848E" stroke-width="2"/>
<path d="M625.64 96C800.693 96.0067 894.873 96.02 908.18 96.04C921.34 96.0667 931.527 96.5 938.74 97.34C986.547 102.913 1029.09 120.923 1066.36 151.37C1067.67 152.437 1069.15 153.747 1070.78 155.3C1072.73 157.15 1074.79 158.3 1076.81 160.35C1083.6 167.23 1089.38 172.59 1095.31 179.67C1098.73 183.763 1101.16 186.717 1102.6 188.53C1128.98 221.73 1147.18 261.89 1153.04 303.93C1153.71 308.71 1154.25 314.147 1154.67 320.24C1154.96 324.48 1155.1 329.93 1155.1 336.59C1155.1 346.723 1155.1 443.353 1155.09 626.48C1155.08 809.6 1155.08 906.227 1155.07 916.36C1155.07 923.027 1154.93 928.48 1154.64 932.72C1154.22 938.813 1153.68 944.25 1153.01 949.03C1147.15 991.07 1128.94 1031.22 1102.56 1064.42C1101.12 1066.23 1098.69 1069.19 1095.27 1073.28C1089.34 1080.36 1083.56 1085.72 1076.77 1092.6C1074.75 1094.65 1072.69 1095.8 1070.74 1097.65C1069.11 1099.2 1067.63 1100.51 1066.32 1101.58C1029.04 1132.02 986.497 1150.03 938.69 1155.6C931.477 1156.44 921.29 1156.87 908.13 1156.89C894.823 1156.91 800.647 1156.92 625.6 1156.91C450.547 1156.9 356.367 1156.89 343.06 1156.87C329.9 1156.84 319.713 1156.41 312.5 1155.57C264.693 1150 222.153 1131.99 184.88 1101.54C183.567 1100.47 182.093 1099.16 180.46 1097.61C178.51 1095.76 176.45 1094.61 174.43 1092.56C167.64 1085.68 161.86 1080.32 155.93 1073.24C152.51 1069.15 150.08 1066.19 148.64 1064.38C122.26 1031.18 104.06 991.02 98.2 948.98C97.5333 944.2 96.99 938.763 96.57 932.67C96.2833 928.43 96.14 922.977 96.14 916.31C96.14 906.177 96.1433 809.55 96.15 626.43C96.1567 443.31 96.16 346.683 96.16 336.55C96.1667 329.883 96.3133 324.43 96.6 320.19C97.02 314.097 97.5633 308.66 98.23 303.88C104.09 261.84 122.3 221.68 148.68 188.48C150.12 186.667 152.55 183.713 155.97 179.62C161.9 172.54 167.68 167.18 174.47 160.31C176.49 158.26 178.55 157.11 180.5 155.26C182.133 153.707 183.607 152.397 184.92 151.33C222.2 120.883 264.743 102.877 312.55 97.31C319.763 96.47 329.947 96.04 343.1 96.02C356.413 96 450.593 95.9933 625.64 96ZM326.18 338.03L353.77 385.17C353.88 385.356 354.037 385.51 354.227 385.617C354.416 385.724 354.631 385.78 354.85 385.78C568.15 385.8 688.7 385.8 716.5 385.78C728.267 385.773 736.593 386.047 741.48 386.6C784.35 391.43 825.8 415.74 851.97 449.76C876.86 482.12 888.43 522.82 884.07 563.73C876.35 636.25 821.17 692.62 750.36 705.42C750.181 705.452 749.996 705.43 749.83 705.355C749.664 705.28 749.524 705.156 749.43 705L711.93 640.94C711.889 640.873 711.868 640.797 711.867 640.719C711.866 640.641 711.887 640.564 711.927 640.495C711.966 640.427 712.024 640.37 712.093 640.331C712.162 640.291 712.24 640.27 712.32 640.27C719.907 640.37 726.447 640.327 731.94 640.14C746.153 639.66 759.61 636.053 772.31 629.32C823.75 602.04 839.06 536.22 805.06 489.05C787.73 465.01 758.68 448.68 728.5 448.68C526.747 448.68 414.577 448.673 391.99 448.66C391.94 448.659 391.891 448.671 391.847 448.695C391.804 448.719 391.767 448.754 391.742 448.797C391.716 448.839 391.703 448.888 391.702 448.938C391.702 448.988 391.715 449.037 391.74 449.08L419.07 495.76C419.186 495.955 419.35 496.117 419.547 496.229C419.743 496.341 419.965 496.4 420.19 496.4C446.39 496.453 548.91 496.46 727.75 496.42C735.31 496.42 742.05 497.793 747.97 500.54C774.51 512.85 785.52 544.74 770.48 570.48C762.24 584.6 747.19 594.54 730.5 594.59C690.253 594.703 625.287 594.71 535.6 594.61C535.533 594.609 535.467 594.626 535.409 594.659C535.351 594.693 535.303 594.741 535.27 594.8C535.236 594.859 535.219 594.926 535.219 594.994C535.219 595.063 535.236 595.13 535.27 595.19L748.54 959.48C748.616 959.611 748.725 959.719 748.856 959.795C748.988 959.87 749.137 959.91 749.29 959.91H799.78C799.865 959.909 799.948 959.885 800.021 959.842C800.094 959.799 800.155 959.738 800.198 959.664C800.24 959.591 800.262 959.507 800.263 959.423C800.263 959.338 800.242 959.254 800.2 959.18L614.01 641.16C613.961 641.075 613.935 640.979 613.935 640.881C613.935 640.783 613.96 640.687 614.009 640.602C614.057 640.517 614.127 640.446 614.212 640.397C614.296 640.347 614.392 640.321 614.49 640.32H659.41C659.568 640.32 659.723 640.361 659.86 640.44C659.997 640.519 660.111 640.633 660.19 640.77L846.76 959.45C846.843 959.593 846.962 959.712 847.106 959.794C847.25 959.877 847.413 959.92 847.58 959.92H898.3C898.356 959.919 898.41 959.903 898.458 959.875C898.505 959.846 898.545 959.805 898.572 959.757C898.599 959.709 898.613 959.654 898.613 959.598C898.613 959.543 898.598 959.488 898.57 959.44L774.88 748.15C774.843 748.087 774.821 748.016 774.816 747.944C774.81 747.871 774.822 747.798 774.849 747.731C774.876 747.664 774.918 747.605 774.972 747.558C775.026 747.511 775.091 747.477 775.16 747.46C870.12 722.86 935.34 637.54 932.57 539.13C931.46 499.54 918.81 461.34 896.56 429.41C863.11 381.39 810.67 348.89 752.78 339.5C744.527 338.16 734.1 337.487 721.5 337.48C605.56 337.42 473.91 337.387 326.55 337.38C326.474 337.38 326.399 337.4 326.334 337.438C326.268 337.476 326.213 337.531 326.176 337.597C326.138 337.663 326.119 337.738 326.119 337.814C326.12 337.89 326.141 337.965 326.18 338.03ZM697.33 959.39L485.62 595.25C485.52 595.076 485.375 594.932 485.202 594.832C485.028 594.732 484.831 594.68 484.63 594.68H433.54C433.461 594.679 433.384 594.699 433.316 594.739C433.248 594.778 433.191 594.834 433.152 594.903C433.114 594.971 433.094 595.049 433.095 595.128C433.096 595.206 433.119 595.283 433.16 595.35C444.127 613.483 457.08 635.367 472.02 661C586.167 856.893 644.097 956.393 645.81 959.5C645.883 959.631 645.989 959.74 646.118 959.815C646.246 959.891 646.392 959.93 646.54 959.93H697.02C697.083 959.93 697.145 959.913 697.199 959.881C697.254 959.849 697.299 959.804 697.33 959.749C697.362 959.695 697.378 959.633 697.378 959.57C697.378 959.507 697.362 959.445 697.33 959.39ZM336.33 594.69C336.146 594.689 335.965 594.737 335.806 594.829C335.646 594.921 335.514 595.053 335.423 595.213C335.331 595.372 335.284 595.553 335.285 595.737C335.286 595.921 335.336 596.102 335.43 596.26L549.03 959.44C549.122 959.595 549.252 959.723 549.408 959.812C549.564 959.902 549.74 959.949 549.92 959.95H599.54C599.724 959.951 599.905 959.903 600.064 959.811C600.224 959.719 600.356 959.587 600.447 959.427C600.539 959.268 600.586 959.087 600.585 958.903C600.584 958.719 600.534 958.538 600.44 958.38L386.84 595.2C386.748 595.045 386.618 594.917 386.462 594.828C386.306 594.738 386.13 594.691 385.95 594.69H336.33Z" fill="#7A1220"/>
<path d="M326.18 338.03C326.141 337.965 326.12 337.89 326.119 337.814C326.119 337.738 326.138 337.663 326.176 337.597C326.213 337.531 326.268 337.476 326.334 337.438C326.399 337.4 326.474 337.38 326.55 337.38C473.91 337.387 605.56 337.42 721.5 337.48C734.1 337.487 744.527 338.16 752.78 339.5C810.67 348.89 863.11 381.39 896.56 429.41C918.81 461.34 931.46 499.54 932.57 539.13C935.34 637.54 870.12 722.86 775.16 747.46C775.091 747.477 775.026 747.511 774.972 747.558C774.918 747.605 774.876 747.664 774.849 747.731C774.822 747.798 774.81 747.871 774.816 747.944C774.821 748.016 774.843 748.087 774.88 748.15L898.57 959.44C898.598 959.488 898.613 959.543 898.613 959.598C898.613 959.654 898.599 959.709 898.572 959.757C898.545 959.805 898.505 959.846 898.458 959.875C898.41 959.903 898.356 959.919 898.3 959.92H847.58C847.413 959.92 847.25 959.877 847.106 959.794C846.962 959.712 846.843 959.593 846.76 959.45L660.19 640.77C660.111 640.633 659.997 640.519 659.86 640.44C659.723 640.361 659.568 640.32 659.41 640.32H614.49C614.392 640.321 614.296 640.347 614.212 640.397C614.127 640.446 614.057 640.517 614.009 640.602C613.96 640.687 613.935 640.783 613.935 640.881C613.935 640.979 613.961 641.075 614.01 641.16L800.2 959.18C800.242 959.254 800.263 959.338 800.263 959.423C800.262 959.507 800.24 959.591 800.198 959.664C800.155 959.738 800.094 959.799 800.021 959.842C799.948 959.885 799.865 959.909 799.78 959.91H749.29C749.137 959.91 748.988 959.87 748.856 959.795C748.725 959.719 748.616 959.611 748.54 959.48L535.27 595.19C535.236 595.13 535.219 595.063 535.219 594.994C535.219 594.926 535.236 594.859 535.27 594.8C535.303 594.741 535.351 594.693 535.409 594.659C535.467 594.626 535.533 594.609 535.6 594.61C625.287 594.71 690.253 594.703 730.5 594.59C747.19 594.54 762.24 584.6 770.48 570.48C785.52 544.74 774.51 512.85 747.97 500.54C742.05 497.793 735.31 496.42 727.75 496.42C548.91 496.46 446.39 496.453 420.19 496.4C419.965 496.4 419.743 496.341 419.547 496.229C419.35 496.117 419.186 495.955 419.07 495.76L391.74 449.08C391.715 449.037 391.702 448.988 391.702 448.938C391.703 448.888 391.716 448.839 391.742 448.797C391.767 448.754 391.804 448.719 391.847 448.695C391.891 448.671 391.94 448.659 391.99 448.66C414.577 448.673 526.747 448.68 728.5 448.68C758.68 448.68 787.73 465.01 805.06 489.05C839.06 536.22 823.75 602.04 772.31 629.32C759.61 636.053 746.153 639.66 731.94 640.14C726.447 640.327 719.907 640.37 712.32 640.27C712.24 640.27 712.162 640.291 712.093 640.331C712.024 640.37 711.966 640.427 711.927 640.495C711.887 640.564 711.866 640.641 711.867 640.719C711.868 640.797 711.889 640.873 711.93 640.94L749.43 705C749.524 705.156 749.664 705.28 749.83 705.355C749.996 705.43 750.181 705.452 750.36 705.42C821.17 692.62 876.35 636.25 884.07 563.73C888.43 522.82 876.86 482.12 851.97 449.76C825.8 415.74 784.35 391.43 741.48 386.6C736.593 386.047 728.267 385.773 716.5 385.78C688.7 385.8 568.15 385.8 354.85 385.78C354.631 385.78 354.416 385.724 354.227 385.617C354.037 385.51 353.88 385.356 353.77 385.17L326.18 338.03Z" fill="white"/>
<path d="M697.02 959.93H646.54C646.392 959.93 646.246 959.891 646.118 959.815C645.989 959.74 645.883 959.631 645.81 959.5C644.097 956.393 586.167 856.893 472.02 661C457.08 635.367 444.127 613.483 433.16 595.35C433.119 595.283 433.097 595.206 433.095 595.128C433.094 595.049 433.114 594.971 433.152 594.903C433.191 594.835 433.248 594.778 433.316 594.739C433.384 594.699 433.461 594.679 433.54 594.68H484.63C484.831 594.68 485.028 594.732 485.202 594.832C485.375 594.932 485.52 595.076 485.62 595.25L697.33 959.39C697.362 959.445 697.378 959.507 697.378 959.57C697.378 959.633 697.362 959.695 697.33 959.749C697.299 959.804 697.254 959.849 697.199 959.881C697.145 959.913 697.083 959.93 697.02 959.93Z" fill="white"/>
<path d="M336.33 594.69H385.95C386.13 594.691 386.306 594.738 386.462 594.828C386.618 594.917 386.748 595.045 386.84 595.2L600.44 958.38C600.534 958.538 600.584 958.719 600.585 958.903C600.586 959.087 600.539 959.268 600.447 959.427C600.356 959.587 600.224 959.719 600.064 959.811C599.905 959.903 599.724 959.951 599.54 959.95H549.92C549.74 959.949 549.564 959.902 549.408 959.812C549.252 959.723 549.122 959.595 549.03 959.44L335.43 596.26C335.336 596.102 335.286 595.921 335.285 595.737C335.284 595.553 335.331 595.372 335.423 595.213C335.514 595.053 335.646 594.921 335.806 594.829C335.965 594.737 336.146 594.689 336.33 594.69Z" fill="white"/>
</g>
<defs>
<clipPath id="clip0_3_2">
<rect width="1254" height="1254" fill="white"/>
</clipPath>
</defs>
</svg>
